<svg xmlns="http://www.w3.org/2000/svg" viewBox="0 0 256 256" width="256" height="256">
  <rect width="256" height="256" rx="32" fill="#111111"/>
  <path d="M98 72h60a34 34 0 0 1 34 34v36a34 34 0 0 1-34 34h-32l-36 28v-28H98a34 34 0 0 1-34-34v-36a34 34 0 0 1 34-34Z" fill="#25F4EE"/>
  <path d="M90 62h60a34 34 0 0 1 34 34v36a34 34 0 0 1-34 34h-32l-36 28v-28H90a34 34 0 0 1-34-34V96a34 34 0 0 1 34-34Z" fill="#FE2C55"/>
  <path d="M94 68h60a28 28 0 0 1 28 28v36a28 28 0 0 1-28 28h-38l-28 22v-22H94a28 28 0 0 1-28-28V96a28 28 0 0 1 28-28Z" fill="#FFFFFF"/>
  <circle cx="104" cy="114" r="9" fill="#111111"/>
  <circle cx="128" cy="114" r="9" fill="#111111"/>
  <circle cx="152" cy="114" r="9" fill="#111111"/>
</svg>
